<svg width="16" height="16" viewBox="0 0 16 16" fill="none" xmlns="http://www.w3.org/2000/svg">
<path opacity="0.5" fill-rule="evenodd" clip-rule="evenodd" d="M6.28033 5.21967C5.98744 4.92678 5.51256 4.92678 5.21967 5.21967C4.92678 5.51256 4.92678 5.98744 5.21967 6.28033L7.18934 8.25L5.21967 10.2197C4.92678 10.5126 4.92678 10.9874 5.21967 11.2803C5.51256 11.5732 5.98744 11.5732 6.28033 11.2803L8.25 9.31066L10.2197 11.2803C10.5126 11.5732 10.9874 11.5732 11.2803 11.2803C11.5732 10.9874 11.5732 10.5126 11.2803 10.2197L9.31066 8.25L11.2803 6.28033C11.5732 5.98744 11.5732 5.51256 11.2803 5.21967C10.9874 4.92678 10.5126 4.92678 10.2197 5.21967L8.25 7.18934L6.28033 5.21967Z" fill="#6E328C"/>
</svg>
